<?xml version="1.0" standalone="no"?><!DOCTYPE svg PUBLIC "-//W3C//DTD SVG 1.1//EN" "http://www.w3.org/Graphics/SVG/1.1/DTD/svg11.dtd"><svg t="1585371135453" class="icon" viewBox="0 0 1065 1024" version="1.1" xmlns="http://www.w3.org/2000/svg" p-id="3696" xmlns:xlink="http://www.w3.org/1999/xlink" width="208.0078125" height="200"><defs><style type="text/css"></style></defs><path d="M803.604008 1024c-13.954309 0-27.498196-3.283367-40.221242-10.260521-14.77515-7.797996-20.110621-26.266934-12.312625-41.042084 7.797996-14.77515 26.266934-20.110621 41.042084-12.312625 11.902204 6.566733 21.752305 1.231263 25.446092-1.641683 3.693788-2.462525 11.902204-10.260521 9.8501-23.393988l-40.631663-251.998397c-4.514629-27.498196 4.92505-55.406814 25.035671-74.696593l184.689379-176.070541c9.8501-9.439679 7.797996-20.521042 6.156313-24.625251-1.231263-4.104208-5.745892-14.364729-19.28978-16.827255l-251.998397-39.400401c-27.498196-4.104208-51.302605-21.752305-63.20481-47.198397l-110.403206-229.835671c-5.745892-12.312625-16.827255-13.543888-21.341884-13.543888-4.92505 0-15.595992 1.231263-21.752305 13.133467L398.929058 301.659319c-12.723046 25.035671-36.527455 41.862926-64.436072 45.556713l-252.819238 34.06493c-13.543888 1.641683-18.058517 11.902204-19.7002 16.416834-1.641683 4.104208-3.693788 15.185571 5.745892 24.625251l180.995591 180.174749c19.7002 19.7002 28.729459 48.019238 23.804409 75.517435l-45.556713 251.177555c-2.462525 13.133467 5.745892 20.931463 9.439679 23.804409 3.693788 2.872946 13.133467 8.208417 25.446092 2.052104l226.962725-116.559519c25.035671-12.723046 54.175551-12.312625 78.800802 0.820842l116.149098 62.383968c14.77515 7.797996 20.110621 26.266934 12.312625 41.042084-7.797996 14.77515-26.266934 20.110621-41.042084 12.312625l-116.149098-62.383968c-6.977154-3.693788-15.595992-3.693788-22.573146-0.410421l-226.962725 116.559519c-29.13988 14.77515-63.20481 11.902204-89.471743-7.387575-26.266934-19.28978-38.579559-51.302605-32.833667-83.315431l45.556713-251.177555c1.231263-7.797996-1.231263-16.006413-6.566733-21.341884L25.035671 465.417234c-22.983567-22.983567-30.781563-56.227655-20.521042-87.009218 10.260521-30.781563 36.937876-52.533868 68.950701-57.048497L326.284569 287.294589c7.797996-1.231263 14.77515-5.745892 18.468938-13.133467l115.328257-227.783567c14.364729-28.729459 43.504609-46.377555 75.517435-46.377555 0.410421 0 0.410421 0 0.820842 0 32.423246 0.410421 61.563126 18.879359 75.517435 48.019238l110.403206 229.835671c3.283367 6.977154 10.260521 12.312625 18.058517 13.543888l251.998397 39.400401c32.012826 4.92505 58.27976 27.498196 67.719439 58.27976 9.8501 31.191984 1.231263 64.436072-22.573146 86.598798l-184.689379 176.070541c-5.745892 5.335471-8.618838 13.543888-6.977154 21.341884l40.631663 251.998397c5.335471 32.012826-8.208417 63.61523-34.475351 82.494589C838.079359 1018.664529 820.841683 1024 803.604008 1024z" p-id="3697"></path></svg>